<svg xmlns="http://www.w3.org/2000/svg" width="764" height="512" viewBox="0 0 764 512" version="1.1">
	<path d="M 261.610 26.146 C 260.603 27.584, 259.475 27.716, 253.964 27.040 C 249.536 26.498, 246.343 26.636, 243.827 27.481 C 241.807 28.158, 239.569 28.351, 238.853 27.909 C 237.100 26.826, 236.037 28.723, 236 33 C 235.983 34.925, 235.639 36.996, 235.235 37.603 C 234.831 38.209, 231.654 38.957, 228.175 39.265 C 223.673 39.663, 221.448 40.354, 220.456 41.662 C 218.371 44.413, 218.366 86.229, 220.450 87.958 C 221.992 89.238, 233.109 90.718, 249.500 91.825 L 259.500 92.500 260 141.597 C 260.414 182.256, 260.747 190.991, 261.936 192.423 C 263.183 193.926, 263.183 194.269, 261.936 195.043 C 260.739 195.784, 260.558 199.728, 260.848 218.716 C 261.040 231.247, 261.404 241.838, 261.657 242.250 C 261.911 242.662, 272.918 243, 286.118 243 C 301.863 243, 309.905 243.344, 309.500 244 C 309.160 244.550, 307.610 245, 306.054 245 C 302.424 245, 302.417 245.057, 302.821 271.660 L 303.143 292.819 305.683 293.457 C 307.080 293.807, 315.975 293.783, 325.449 293.404 C 339.745 292.831, 342.746 292.950, 343.088 294.107 C 343.315 294.873, 343.372 306.188, 343.215 319.250 L 342.930 343 338.965 343 L 335 343 334.882 336.250 C 334.816 332.538, 334.825 328.985, 334.901 328.355 C 335.114 326.595, 329.351 325, 322.785 325 C 316.537 325, 312.504 326.389, 313.600 328.162 C 313.961 328.746, 313.667 329.588, 312.948 330.032 C 312.196 330.497, 311.453 333.408, 311.203 336.867 L 310.767 342.893 307.134 343.197 L 303.500 343.500 302.881 385.017 C 302.540 407.851, 301.953 427.935, 301.577 429.649 C 300.915 432.665, 300.774 432.737, 297.196 431.906 C 295.163 431.434, 291.207 431.037, 288.405 431.024 C 282.038 430.994, 280.414 432.646, 279.764 439.809 C 279.499 442.729, 278.856 445.544, 278.335 446.065 C 277.752 446.648, 275.554 446.669, 272.615 446.120 C 263.496 444.417, 264 443.043, 264 469.598 L 264 492.962 266.250 493.488 C 267.488 493.778, 272.100 494.946, 276.500 496.083 C 287.233 498.858, 290.597 499.685, 296.500 501.002 C 299.250 501.615, 302.400 502.515, 303.500 503.002 C 304.600 503.489, 307.862 504.180, 310.749 504.538 C 313.636 504.895, 316.250 505.595, 316.558 506.094 C 317.308 507.308, 323.504 507.240, 330.114 505.945 C 333.076 505.364, 339.100 504.246, 343.500 503.459 C 347.900 502.672, 353.300 501.612, 355.500 501.103 C 357.700 500.594, 362.650 499.515, 366.500 498.706 C 379.666 495.937, 379.231 497.066, 378.240 468.205 C 377.443 445.010, 377.001 443.021, 373 444.621 C 372.175 444.951, 369.653 445.447, 367.396 445.724 C 363.726 446.174, 363.226 445.977, 362.660 443.864 C 362.312 442.564, 362.021 439.640, 362.014 437.367 C 361.998 432.517, 361.575 432.310, 349.750 431.339 L 342 430.704 342 412.934 C 342 403.160, 342.273 394.452, 342.607 393.582 C 343.146 392.177, 347.534 392.002, 381.857 392.014 C 403.111 392.021, 421.512 392.299, 422.750 392.630 C 424.984 393.229, 425 393.370, 425.001 412.367 L 425.003 431.500 419.546 431.160 C 414.886 430.870, 413.744 431.165, 411.730 433.179 C 409.795 435.114, 409.339 436.688, 409.195 441.927 C 409.098 445.440, 408.883 448.451, 408.716 448.617 C 408.550 448.783, 405.564 448.254, 402.080 447.442 C 392.875 445.294, 393.070 444.771, 393.032 471.643 C 393.003 491.781, 393.158 493.858, 394.750 494.578 C 396.774 495.495, 407.395 497.547, 417.500 498.974 C 421.350 499.518, 428.325 500.666, 433 501.526 C 460.795 506.637, 462.878 506.805, 476.500 505.052 C 492.616 502.977, 504.796 499.540, 505.125 496.974 C 505.840 491.403, 505.968 486.559, 505.893 468.003 C 505.845 456.179, 505.384 445.717, 504.868 444.753 C 503.697 442.565, 498.593 442.442, 494.636 444.506 C 493.060 445.328, 491.710 446, 491.636 446 C 491.561 446, 491.431 444.988, 491.346 443.750 C 490.899 437.249, 489.560 432.805, 487.641 431.461 C 484.787 429.462, 471.228 429.513, 468.559 431.532 C 467.491 432.339, 466.258 433, 465.819 433 C 465.380 433, 464.903 412.863, 464.760 388.250 L 464.500 343.500 461.009 343.169 C 456.644 342.754, 456.034 341.788, 456.015 335.250 C 456.004 331.257, 455.641 330, 454.500 330 C 453.675 330, 453 329.397, 453 328.661 C 453 326.399, 448.253 324.998, 440.703 325.032 C 430.776 325.076, 430 325.824, 430 335.360 C 430 342.843, 429.949 343, 427.500 343 L 425 343 424.850 319.500 C 424.767 306.575, 424.655 295.438, 424.600 294.750 C 424.524 293.796, 429.295 293.436, 444.750 293.229 L 465 292.959 465 269.102 C 465 250.510, 465.293 245.002, 466.326 244.145 C 467.163 243.450, 474.811 242.944, 487.076 242.772 L 506.500 242.500 506.771 221.028 C 506.925 208.786, 506.619 198.346, 506.060 196.741 C 505.482 195.084, 505.433 192.991, 505.941 191.655 C 506.416 190.407, 506.511 167.866, 506.152 141.565 C 505.722 109.991, 505.840 93.631, 506.500 93.412 C 507.050 93.229, 515.918 92.606, 526.206 92.025 C 536.495 91.445, 545.607 90.704, 546.456 90.378 C 547.785 89.868, 548 86.626, 548 67.084 C 548 40.413, 548.124 40.800, 539.345 40.020 L 533.500 39.500 533.198 34.250 L 532.895 29 525.376 29 C 519.761 29, 517.445 28.587, 516.228 27.371 C 514.868 26.011, 513.351 25.862, 507.049 26.467 C 502.897 26.866, 498.226 27.262, 496.669 27.346 C 495.113 27.431, 493.313 28.218, 492.669 29.095 C 491.048 31.306, 478.091 32.400, 477.320 30.391 C 476.733 28.862, 468.583 28.527, 459.250 29.648 L 454 30.279 454 36.023 C 454 42.414, 453.355 42.959, 445.750 42.986 C 443.329 42.995, 441.281 43.719, 439.970 45.030 C 438.117 46.883, 437.987 47.948, 438.469 57.280 C 438.759 62.901, 439.264 73.176, 439.591 80.113 L 440.186 92.726 450.843 93.262 C 456.704 93.557, 462.222 94.092, 463.104 94.450 C 464.531 95.030, 464.789 100.409, 465.437 142.962 C 465.965 177.593, 465.857 191.399, 465.048 192.911 C 464.202 194.490, 462.963 195, 459.965 195 L 456 195 456 189.535 C 456 185.353, 455.589 183.851, 454.250 183.136 C 451.397 181.613, 441.408 180.719, 435.500 181.457 L 430 182.144 430 188.572 C 430 194.762, 429.907 195, 427.500 195 L 425 195 425 171.200 C 425 154.022, 424.666 147.066, 423.800 146.200 C 423.140 145.540, 421.115 145, 419.300 145 C 416.865 145, 415.972 144.541, 415.893 143.250 C 415.737 140.698, 415.281 135.620, 415.130 134.750 C 415.059 134.338, 410.212 134, 404.360 134 C 392.295 134, 391.088 134.657, 391.032 141.250 L 391 145 383.052 145 L 375.105 145 374.802 139.750 L 374.500 134.500 362.750 134.218 L 351 133.937 351 139.408 L 351 144.879 347.250 145.190 L 343.500 145.500 343.345 173.322 C 343.259 188.624, 342.922 201.412, 342.595 201.739 C 342.268 202.066, 342 201.170, 342 199.748 C 342 195.429, 340.979 194, 337.893 194 C 335.870 194, 334.949 193.474, 334.829 192.250 C 334.426 188.125, 334.275 186.369, 334.142 184.250 C 334.003 182.050, 333.736 182, 322 182 C 313.147 182, 309.960 182.328, 309.849 183.250 C 309.766 183.938, 309.654 186.525, 309.599 189 L 309.500 193.500 305.013 193.500 L 300.525 193.500 300.849 144 C 301.027 116.775, 301.471 94.199, 301.836 93.831 C 302.201 93.463, 309.250 92.844, 317.500 92.457 C 325.750 92.069, 333.063 91.303, 333.750 90.754 C 334.688 90.004, 335 83.704, 335 65.494 L 335 41.233 332.750 40.630 C 331.512 40.299, 328.624 40.021, 326.332 40.014 C 319.732 39.992, 319 39.397, 319 34.054 C 319 29.953, 318.660 29.166, 316.453 28.161 C 310.891 25.626, 295.803 28.069, 295.153 31.609 C 294.621 34.506, 293 35.752, 293 33.263 C 293 31.600, 292.303 31.057, 289.851 30.813 C 286.800 30.510, 285.771 29.507, 284.573 25.670 C 284.058 24.022, 282.952 23.871, 273.396 24.150 C 264.819 24.401, 262.566 24.782, 261.610 26.146 M 264.079 29.583 C 264.127 30.748, 264.364 30.985, 264.683 30.188 C 264.972 29.466, 264.936 28.603, 264.604 28.271 C 264.272 27.939, 264.036 28.529, 264.079 29.583 M 335 243.864 C 335 244.339, 336.800 244.727, 339 244.727 C 341.200 244.727, 343 244.339, 343 243.864 C 343 243.389, 341.200 243, 339 243 C 336.800 243, 335 243.389, 335 243.864 M 282.750 435.662 C 283.438 435.940, 284.563 435.940, 285.250 435.662 C 285.938 435.385, 285.375 435.158, 284 435.158 C 282.625 435.158, 282.063 435.385, 282.750 435.662 M 413.269 435.693 C 414.242 435.947, 415.592 435.930, 416.269 435.656 C 416.946 435.382, 416.150 435.175, 414.500 435.195 C 412.850 435.215, 412.296 435.439, 413.269 435.693 M 308.079 439.583 C 308.127 440.748, 308.364 440.985, 308.683 440.188 C 308.972 439.466, 308.936 438.603, 308.604 438.271 C 308.272 437.939, 308.036 438.529, 308.079 439.583 M 448.813 440.683 C 449.534 440.972, 450.397 440.936, 450.729 440.604 C 451.061 440.272, 450.471 440.036, 449.417 440.079 C 448.252 440.127, 448.015 440.364, 448.813 440.683 M 426.762 451.707 C 428.006 451.946, 429.806 451.937, 430.762 451.687 C 431.718 451.437, 430.700 451.241, 428.500 451.252 C 426.300 451.263, 425.518 451.468, 426.762 451.707 M 436.762 453.707 C 438.006 453.946, 439.806 453.937, 440.762 453.687 C 441.718 453.437, 440.700 453.241, 438.500 453.252 C 436.300 453.263, 435.518 453.468, 436.762 453.707 M 444.382 454.716 C 444.776 455.109, 446.538 455.523, 448.299 455.636 C 450.059 455.749, 453.075 456.043, 455 456.289 C 456.925 456.536, 457.488 456.542, 456.250 456.302 C 455.012 456.063, 454 455.447, 454 454.934 C 454 454.420, 451.675 454, 448.833 454 C 445.992 454, 443.989 454.322, 444.382 454.716" stroke="none" fill="black" fill-rule="evenodd"/>
</svg>